<?xml version="1.0" standalone="no"?>
<!DOCTYPE svg PUBLIC "-//W3C//DTD SVG 20010904//EN"
 "http://www.w3.org/TR/2001/REC-SVG-20010904/DTD/svg10.dtd">
<svg version="1.0" xmlns="http://www.w3.org/2000/svg"
 width="200pt" height="94pt" viewBox="0 0 390.000000 194.000000"
 preserveAspectRatio="xMidYMid meet">

<g transform="translate(0.000000,194.000000) scale(0.100000,-0.100000)"
fill="#000000" stroke="none">
<path d="M956 1435 c-59 -21 -88 -46 -118 -105 -63 -119 -15 -278 95 -319 48
-18 153 -13 197 9 22 11 42 20 45 20 3 0 5 -9 5 -20 0 -11 5 -20 10 -20 6 0
10 30 10 70 0 69 -14 93 -26 45 -9 -37 -66 -82 -113 -90 -73 -12 -135 23 -161
90 -18 46 -13 178 7 222 51 106 194 110 254 8 12 -19 23 -35 25 -35 2 0 4 29
4 65 0 37 -4 65 -10 65 -5 0 -10 -7 -10 -16 0 -12 -5 -14 -17 -9 -91 39 -134
43 -197 20z"/>
<path d="M2489 1436 c-87 -31 -133 -93 -145 -196 -11 -98 37 -194 113 -226 49
-21 161 -18 208 6 22 11 40 20 41 20 1 0 4 -10 8 -22 4 -16 8 -20 16 -12 14
14 9 126 -5 131 -6 2 -21 -17 -34 -42 -53 -101 -197 -98 -252 5 -28 51 -26
186 1 241 52 102 194 107 249 9 12 -22 24 -40 27 -40 2 0 4 29 4 65 0 37 -4
65 -10 65 -5 0 -10 -7 -10 -16 0 -12 -5 -14 -17 -9 -90 38 -134 43 -194 21z"/>
<path d="M3465 1441 c-178 -46 -238 -260 -108 -383 42 -41 94 -58 170 -58 85
0 137 23 186 80 41 49 51 85 45 168 -5 72 -43 130 -109 166 -49 28 -135 40
-184 27z m154 -50 c44 -31 63 -75 69 -153 9 -125 -44 -203 -144 -214 -39 -4
-58 -1 -94 18 -56 29 -81 72 -87 151 -9 105 25 183 91 213 44 20 126 13 165
-15z"/>
<path d="M440 1250 c-73 -186 -83 -206 -125 -235 -18 -13 -13 -14 53 -15 69 0
95 12 51 23 -19 5 -21 11 -16 44 3 21 10 51 16 66 11 28 11 28 92 25 l82 -3
18 -54 c20 -58 14 -81 -22 -81 -11 0 -19 -4 -19 -10 0 -6 38 -10 95 -10 95 0
114 7 73 25 -31 14 -52 53 -128 244 -39 97 -72 167 -81 169 -10 2 -36 -52 -89
-188z m115 5 l25 -65 -70 0 -69 0 20 48 c11 26 27 63 35 82 18 41 21 38 59
-65z"/>
<path d="M1303 1434 c4 -4 17 -12 29 -18 22 -11 23 -16 26 -190 3 -185 -1
-206 -39 -206 -11 0 -19 -4 -19 -10 0 -6 37 -10 90 -10 53 0 90 4 90 10 0 6
-8 10 -18 10 -34 0 -42 21 -42 107 l0 83 95 1 c52 1 105 2 118 2 21 1 22 -3
25 -80 3 -86 -8 -113 -49 -113 -10 0 -19 -4 -19 -10 0 -6 38 -10 95 -10 52 0
95 4 95 9 0 5 -10 11 -22 13 -39 5 -48 42 -48 200 0 150 8 198 34 198 8 0 18
5 21 10 4 6 -25 10 -79 10 -51 0 -86 -4 -86 -10 0 -5 8 -10 18 -10 33 0 42
-21 42 -102 l0 -78 -120 0 -121 0 3 87 c3 79 5 88 23 91 11 2 24 8 30 13 5 5
-29 9 -85 9 -51 0 -90 -3 -87 -6z"/>
<path d="M2031 1398 c-10 -24 -46 -114 -81 -201 -49 -122 -69 -161 -87 -170
-40 -18 -25 -27 47 -27 75 0 85 5 45 20 -30 11 -32 36 -9 97 l17 43 79 0 79 0
20 -47 c24 -55 22 -86 -6 -91 -11 -2 -24 -8 -30 -13 -5 -5 30 -9 88 -9 58 0
97 4 97 10 0 6 -6 10 -13 10 -31 0 -67 71 -170 338 -17 45 -37 82 -45 82 -7 0
-21 -19 -31 -42z m53 -136 l25 -72 -65 0 c-35 0 -64 2 -64 5 0 7 49 135 56
146 10 17 22 -2 48 -79z"/>
<path d="M2835 1430 c3 -5 14 -10 25 -10 10 0 21 -7 24 -16 3 -9 6 -93 6 -188
0 -178 -4 -196 -42 -196 -10 0 -18 -4 -18 -10 0 -6 68 -10 185 -10 169 0 185
1 185 18 0 9 3 34 6 55 8 46 -7 48 -29 3 -11 -24 -27 -38 -52 -46 -43 -14
-140 -9 -158 9 -8 8 -12 63 -12 189 0 173 0 177 23 188 42 21 35 24 -57 24
-59 0 -90 -4 -86 -10z"/>
<path d="M1352 513 c-21 -42 -54 -134 -50 -138 2 -3 18 31 35 75 28 74 35 103
15 63z"/>
<path d="M2727 462 c-15 -37 -27 -76 -27 -87 0 -11 12 12 26 50 33 90 37 105
32 105 -3 0 -17 -30 -31 -68z"/>
<path d="M2954 514 c-3 -10 -10 -30 -15 -43 -5 -13 -8 -25 -6 -28 3 -2 12 15
21 38 9 23 15 44 12 47 -3 3 -8 -4 -12 -14z"/>
<path d="M1248 447 c-24 -71 -22 -84 3 -22 10 28 18 56 17 62 -2 7 -11 -11
-20 -40z"/>
<path d="M2506 458 c-8 -19 -17 -47 -20 -64 -5 -20 -2 -17 9 11 8 22 20 48 26
58 5 11 8 21 5 25 -3 3 -12 -10 -20 -30z"/>
<path d="M2418 431 c10 -28 19 -45 21 -39 5 14 -20 88 -30 88 -4 0 0 -22 9
-49z"/>
<path d="M1395 433 c-9 -20 -14 -44 -13 -52 2 -8 10 9 20 37 19 60 15 68 -7
15z"/>
<path d="M1471 448 c-16 -43 -22 -68 -18 -68 3 0 12 20 20 45 16 45 14 65 -2
23z"/>
<path d="M1663 458 c-15 -20 -36 -78 -31 -84 3 -2 15 18 26 46 21 50 22 60 5
38z"/>
<path d="M1727 435 c-9 -20 -17 -46 -17 -58 1 -12 9 3 20 33 22 64 21 74 -3
25z"/>
<path d="M1788 395 c-14 -41 -22 -72 -17 -70 9 6 53 135 47 140 -2 2 -15 -29
-30 -70z"/>
<path d="M2046 429 c-9 -23 -15 -43 -13 -46 3 -2 12 15 21 38 9 23 15 43 13
46 -3 2 -12 -15 -21 -38z"/>
<path d="M2117 423 c-25 -69 -20 -77 9 -14 27 60 27 61 16 61 -4 0 -16 -21
-25 -47z"/>
<path d="M2193 427 c-18 -64 -15 -82 3 -29 8 24 14 51 12 59 -2 9 -9 -5 -15
-30z"/>
<path d="M2577 428 c-9 -23 -15 -44 -12 -46 4 -5 15 19 29 66 12 38 0 24 -17
-20z"/>
<path d="M2659 444 c-34 -85 -48 -127 -39 -118 13 13 61 136 55 142 -2 3 -10
-8 -16 -24z"/>
<path d="M1575 427 c-22 -53 -17 -70 6 -18 11 24 17 46 14 49 -2 3 -12 -11
-20 -31z"/>
<path d="M1901 444 c0 -11 3 -14 6 -6 3 7 2 16 -1 19 -3 4 -6 -2 -5 -13z"/>
<path d="M2802 448 c-18 -23 -23 -57 -12 -75 11 -17 11 -17 6 0 -3 10 1 34 9
53 15 36 14 42 -3 22z"/>
<path d="M1911 413 c-1 -6 -4 -20 -7 -30 -5 -17 -5 -17 6 0 6 10 9 23 6 30 -3
9 -5 9 -5 0z"/>
</g>
</svg>
